# xmcd
#
# Track frame offsets: 
#        150
#        15580
#        30702
#        45805
#        61355
#        76965
#        91752
#        106772
#        125205
#        141292
#        156797
#        174472
#        191490
#
# Disc length: 2761 seconds
#
# Revision: 6
# Processed by: cddbd v1.5.2PL0 Copyright (c) Steve Scherf et al.
# Submitted via: ExactAudioCopy v0.99pb5
#
DISCID=9c0ac70d
DTITLE=Roy Black - Zeit für Zärtlichkeit
DYEAR=1990
DGENRE=Schlager
TTITLE0=Ein kleines bisschen Zaertlichkeit
TTITLE1=Lass mich nie mehr so allein
TTITLE2=Diese Nacht ist viel zu schoen
TTITLE3=Wie ein Stern am Horizont
TTITLE4=Mitten ins Herz
TTITLE5=Vaya con dios
TTITLE6=Holiday am Woerthersee
TTITLE7=Tausend Feuer
TTITLE8=Kristin
TTITLE9=Sag mir wann
TTITLE10=Ein Sommer der Liebe
TTITLE11=Die Augen der Nacht
TTITLE12=Wunderbar ist die Welt
EXTD=YEAR: 1990 ID3G: 11
EXTT0=
EXTT1=
EXTT2=
EXTT3=
EXTT4=
EXTT5=
EXTT6=
EXTT7=
EXTT8=
EXTT9=
EXTT10=
EXTT11=
EXTT12=
PLAYORDER=
